<svg width="19" height="19" viewBox="0 0 19 19" fill="none" xmlns="http://www.w3.org/2000/svg">
<path d="M12.4296 9.49994C12.4296 10.9849 11.2296 12.1849 9.74457 12.1849C8.25957 12.1849 7.05957 10.9849 7.05957 9.49994C7.05957 8.01494 8.25957 6.81494 9.74457 6.81494C11.2296 6.81494 12.4296 8.01494 12.4296 9.49994Z" stroke="white" stroke-width="1.5" stroke-linecap="round" stroke-linejoin="round"/>
<path d="M9.74451 15.7025C12.392 15.7025 14.8595 14.1425 16.577 11.4425C17.252 10.385 17.252 8.60754 16.577 7.55004C14.8595 4.85004 12.392 3.29004 9.74451 3.29004C7.09701 3.29004 4.62951 4.85004 2.91201 7.55004C2.23701 8.60754 2.23701 10.385 2.91201 11.4425C4.62951 14.1425 7.09701 15.7025 9.74451 15.7025Z" stroke="white" stroke-width="1.5" stroke-linecap="round" stroke-linejoin="round"/>
</svg>
